<svg xmlns="http://www.w3.org/2000/svg" version="1.1" xmlns:xlink="http://www.w3.org/1999/xlink" xmlns:svgjs="http://svgjs.dev/svgjs" width="2000" height="318" viewBox="0 0 2000 318"><g transform="matrix(1,0,0,1,-1.2121212121212466,1.228035111617885)"><svg viewBox="0 0 396 63" data-background-color="#ffffff" preserveAspectRatio="xMidYMid meet" height="318" width="2000" xmlns="http://www.w3.org/2000/svg" xmlns:xlink="http://www.w3.org/1999/xlink"><g id="tight-bounds" transform="matrix(1,0,0,1,0.2400000000000091,-0.24328997494316695)"><svg viewBox="0 0 395.52 63.48657994988633" height="63.48657994988633" width="395.52"><g><svg viewBox="0 0 481.29841183511155 77.2552338762215" height="63.48657994988633" width="395.52"><g><rect width="6.932295242148274" height="77.2552338762215" x="60.698746849119615" y="0" fill="#ffffff" opacity="1" stroke-width="0" stroke="transparent" fill-opacity="1" class="rect-qz-0" data-fill-palette-color="primary" rx="1%" id="qz-0" data-palette-color="#4a596d"></rect></g><g transform="matrix(1,0,0,1,85.77841183511154,0.19217719869706684)"><svg viewBox="0 0 395.52 76.87087947882736" height="76.87087947882736" width="395.52"><g id="textblocktransform"><svg viewBox="0 0 395.52 76.87087947882736" height="76.87087947882736" width="395.52" id="textblock"><g><svg viewBox="0 0 395.52 76.87087947882736" height="76.87087947882736" width="395.52"><g transform="matrix(1,0,0,1,0,0)"><svg width="395.52" viewBox="4.65 -35.1 230.23 44.75" height="76.87087947882736" data-palette-color="#4a596d"><path d="M16.25-32.25Q23.1-32.25 26.75-28.35 30.4-24.45 30.4-17.15L30.4-17.15Q30.4-8.7 26.45-4.2 22.5 0.3 15.1 0.3L15.1 0.3Q13.05 0.3 10.13 0.23 7.2 0.15 4.7 0L4.7 0 4.65 0 4.9-9.65 4.65-32.05 4.7-32.05 16.25-32.25ZM15.75-3.05Q20.85-3.05 23.58-6.38 26.3-9.7 26.3-16.3L26.3-16.3Q26.3-28.9 15.95-28.9L15.95-28.9Q12.8-28.9 8.7-28.7L8.7-28.7 8.5-10 8.65-3.35Q10.2-3.2 12.38-3.13 14.55-3.05 15.75-3.05L15.75-3.05ZM52.45-11.65L38.1-11.6 38.1-11.5Q38.1-7.3 40-5.05 41.9-2.8 45.4-2.8L45.4-2.8Q47.15-2.8 48.9-3.38 50.65-3.95 52.1-5L52.1-5 52.5-4.7 51.9-1.3Q48.4 0.4 44.9 0.4L44.9 0.4Q40 0.4 37.2-2.73 34.4-5.85 34.4-11.3L34.4-11.3Q34.4-16.8 37.2-20.05 40-23.3 44.75-23.3L44.75-23.3Q48.75-23.3 50.95-21.03 53.15-18.75 53.15-14.7L53.15-14.7Q53.15-13.35 52.95-12.15L52.95-12.15 52.45-11.65ZM44.75-20.5Q42.25-20.5 40.57-18.88 38.9-17.25 38.35-14.3L38.35-14.3 49.4-14.5 49.5-15.2Q49.5-17.75 48.27-19.13 47.05-20.5 44.75-20.5L44.75-20.5ZM73.55 0L73.8-15.55Q73.85-17.6 72.85-18.75 71.85-19.9 69.9-19.9L69.9-19.9Q66.75-19.9 63.1-16.35L63.1-16.35 63.1-10.05 63.3 0 59.35 0 59.6-9.7 59.4-22.65 63.15-23 63.15-19.65 63.45-19.65Q66.55-22.4 69.8-23.2L69.8-23.2Q73.55-23.2 75.52-21.45 77.5-19.7 77.45-16.45L77.45-16.45 77.35-9.95 77.55 0 73.55 0ZM92.34-3.05Q93.99-3.05 95.94-4.05L95.94-4.05 96.39-3.75 95.99-1.15Q93.29 0.1 90.99 0.3L90.99 0.3Q88.14-0.25 86.89-1.8 85.64-3.35 85.64-6.3L85.64-6.3 85.79-9.85 85.74-20.2 82.59-20.2 82.39-20.5 82.64-22.85 85.69-22.85 85.69-26.55 89.14-28.05 89.54-27.7 89.44-22.85 96.24-22.85 96.44-22.55 96.19-20.2 89.44-20.2 89.19-6.65Q89.14-4.65 89.89-3.85 90.64-3.05 92.34-3.05L92.34-3.05ZM101.14 0L101.34-9.7 101.19-22.65 105.04-23 104.94-10.05 105.04 0 101.14 0ZM103.19-33.15Q104.19-33.15 104.79-32.55 105.39-31.95 105.39-30.9L105.39-30.9Q105.39-29.8 104.77-29.15 104.14-28.5 103.04-28.5L103.04-28.5Q101.99-28.5 101.42-29.1 100.84-29.7 100.84-30.8L100.84-30.8Q100.84-31.85 101.47-32.5 102.09-33.15 103.19-33.15L103.19-33.15ZM127.29-16.7Q134.09-15.35 134.09-8.95L134.09-8.95Q134.09-4.4 130.79-2.1 127.49 0.2 120.94 0.2L120.94 0.2Q116.54 0.2 113.89 0L113.89 0 113.84 0 114.09-9.65 113.84-32.05 122.74-32.1Q127.24-32.1 129.66-30.1 132.09-28.1 132.09-24.3L132.09-24.3Q132.09-21.6 130.84-19.65 129.59-17.7 127.29-16.7L127.29-16.7ZM127.99-23.85Q127.99-26.45 126.56-27.63 125.14-28.8 121.94-28.8L121.94-28.8 117.89-28.8 117.79-18.05 123.29-17.9Q127.99-19 127.99-23.85L127.99-23.85ZM121.54-3.15Q125.64-3.15 127.84-4.7 130.04-6.25 130.04-9.15L130.04-9.15Q130.04-14.05 123.89-14.75L123.89-14.75 117.74-14.7 117.69-10 117.84-3.3Q119.79-3.15 121.54-3.15L121.54-3.15ZM150.04-22.95Q150.64-22.95 151.34-22.85L151.34-22.85 151.34-19 150.89-18.85Q150.04-19.1 149.04-19.1L149.04-19.1Q147.39-19.1 146.01-17.78 144.64-16.45 143.29-13.55L143.29-13.55 143.24-10.05 143.49 0 139.54 0 139.79-9.7 139.59-22.65 143.34-23 143.29-18.3 143.59-18.3Q144.99-20.8 146.69-21.88 148.39-22.95 150.04-22.95L150.04-22.95ZM155.73 0L155.93-9.7 155.78-22.65 159.63-23 159.53-10.05 159.63 0 155.73 0ZM157.78-33.15Q158.78-33.15 159.38-32.55 159.98-31.95 159.98-30.9L159.98-30.9Q159.98-29.8 159.36-29.15 158.73-28.5 157.63-28.5L157.63-28.5Q156.58-28.5 156.01-29.1 155.43-29.7 155.43-30.8L155.43-30.8Q155.43-31.85 156.06-32.5 156.68-33.15 157.78-33.15L157.78-33.15ZM185.28-35.1L184.93-10.05 185.08-4.9Q185.13-3.85 185.43-3.43 185.73-3 186.53-3L186.53-3Q187.33-3 188.23-3.3L188.23-3.3 188.63-2.95 188.23-0.7Q186.88 0.15 185.43 0.3L185.43 0.3Q183.88 0.15 183.01-0.75 182.13-1.65 181.93-3.2L181.93-3.2 181.58-3.2Q180.08-1.9 178.88-1.13 177.68-0.35 176.13 0.25L176.13 0.25Q171.18 0.25 168.53-2.78 165.88-5.8 165.88-11.4L165.88-11.4Q165.88-17.05 168.83-20.18 171.78-23.3 176.98-23.3L176.98-23.3Q179.33-23.3 181.38-22.8L181.38-22.8 181.33-34.75 185.28-35.1ZM176.53-20.5Q173.33-20.5 171.48-18.32 169.63-16.15 169.63-12.05L169.63-12.05Q169.63-7.8 171.31-5.45 172.98-3.1 175.93-3.1L175.93-3.1Q177.33-3.1 178.66-3.8 179.98-4.5 181.43-6.15L181.43-6.15 181.53-9.75 181.38-19.25Q178.73-20.5 176.53-20.5L176.53-20.5ZM213.93-20.95Q212.38-20.5 209.33-19.9L209.33-19.9 209.23-19.7Q210.33-17.95 210.33-15.45L210.33-15.45Q210.33-11.8 207.9-9.65 205.48-7.5 201.33-7.5L201.33-7.5Q199.68-7.5 198.23-7.9L198.23-7.9Q197.38-7.25 197.08-6.85 196.78-6.45 196.78-5.95L196.78-5.95Q196.78-4.9 198.08-4.48 199.38-4.05 202.33-3.6L202.33-3.6Q205.23-3.2 207.08-2.7 208.93-2.2 210.28-1.07 211.63 0.05 211.63 2.05L211.63 2.05Q211.63 4.15 210.2 5.9 208.78 7.65 206.3 8.65 203.83 9.65 200.88 9.65L200.88 9.65Q196.88 9.65 194.65 7.83 192.43 6 192.43 3.1L192.43 3.1Q193.63 0.7 196.83-1.25L196.83-1.25 196.83-1.5Q195.03-2.05 194.05-2.98 193.08-3.9 193.08-5.5L193.08-5.5Q194.13-7.25 196.13-8.55L196.13-8.55 196.13-8.75Q194.53-9.75 193.7-11.38 192.88-13 192.88-15.15L192.88-15.15Q192.88-18.9 195.3-21.03 197.73-23.15 201.78-23.15L201.78-23.15Q204.43-23.15 206.28-22.25L206.28-22.25Q209.73-22.9 213.53-23.95L213.53-23.95 213.93-23.65 213.93-20.95ZM201.53-10.2Q204.03-10.2 205.4-11.6 206.78-13 206.78-15.5L206.78-15.5Q206.78-17.9 205.48-19.2 204.18-20.5 201.73-20.5L201.73-20.5Q199.23-20.5 197.83-19.15 196.43-17.8 196.43-15.3L196.43-15.3Q196.43-12.9 197.75-11.55 199.08-10.2 201.53-10.2L201.53-10.2ZM208.13 2.8Q208.13 1.15 206.45 0.5 204.78-0.15 201.38-0.65L201.38-0.65 199.78-0.9Q197.88 0.25 196.9 1.3 195.93 2.35 195.93 3.5L195.93 3.5Q195.93 4.95 197.35 5.9 198.78 6.85 201.33 6.85L201.33 6.85Q204.23 6.85 206.18 5.68 208.13 4.5 208.13 2.8L208.13 2.8ZM234.18-11.65L219.83-11.6 219.83-11.5Q219.83-7.3 221.73-5.05 223.63-2.8 227.13-2.8L227.13-2.8Q228.88-2.8 230.63-3.38 232.38-3.95 233.83-5L233.83-5 234.23-4.7 233.63-1.3Q230.13 0.4 226.63 0.4L226.63 0.4Q221.73 0.4 218.93-2.73 216.13-5.85 216.13-11.3L216.13-11.3Q216.13-16.8 218.93-20.05 221.73-23.3 226.48-23.3L226.48-23.3Q230.48-23.3 232.68-21.03 234.88-18.75 234.88-14.7L234.88-14.7Q234.88-13.35 234.68-12.15L234.68-12.15 234.18-11.65ZM226.48-20.5Q223.98-20.5 222.3-18.88 220.63-17.25 220.08-14.3L220.08-14.3 231.13-14.5 231.23-15.2Q231.23-17.75 230-19.13 228.78-20.5 226.48-20.5L226.48-20.5Z" opacity="1" transform="matrix(1,0,0,1,0,0)" fill="#ffffff" class="wordmark-text-0" data-fill-palette-color="primary" id="text-0"></path></svg></g></svg></g></svg></g></svg></g><g transform="matrix(1,0,0,1,0,0.19217719869706684)"><svg viewBox="0 0 42.55137710527597 76.87087947882736" height="76.87087947882736" width="42.55137710527597"><g><svg xmlns="http://www.w3.org/2000/svg" xmlns:xlink="http://www.w3.org/1999/xlink" version="1.1" x="0" y="0" viewBox="21.674000000000003 2 45.333 81.896" enable-background="new 0 0 90 90" xml:space="preserve" height="76.87087947882736" width="42.55137710527597" class="icon-icon-0" data-fill-palette-color="accent" id="icon-0"><g fill="#4a596d" data-fill-palette-color="accent"><g fill="#4a596d" data-fill-palette-color="accent"><path d="M62.448 47.599c-2.634-3.491-6.287-6.193-10.383-7.679V25.988h0.186c2.25 0 4.083-1.833 4.083-4.095 0-2.25-1.833-4.095-4.083-4.095H36.429c-2.25 0-4.083 1.844-4.083 4.095 0 2.262 1.833 4.095 4.083 4.095h0.186V39.92c-4.095 1.485-7.749 4.188-10.382 7.679-2.981 3.956-4.559 8.665-4.559 13.631 0 12.505 10.173 22.666 22.667 22.666 12.505 0 22.666-10.161 22.666-22.666C67.006 56.264 65.429 51.555 62.448 47.599zM36.429 24.353c-1.357 0-2.459-1.102-2.459-2.459 0-1.357 1.102-2.459 2.459-2.459h15.822c1.357 0 2.46 1.102 2.46 2.459 0 1.357-1.103 2.459-2.46 2.459H36.429zM44.34 82.271c-11.623 0-21.042-9.42-21.042-21.042 0-9.501 6.298-17.528 14.952-20.138V25.988h12.18v15.104c8.653 2.609 14.953 10.637 14.953 20.138C65.383 72.852 55.964 82.271 44.34 82.271z" fill="#ffffff" data-fill-palette-color="accent"></path><path d="M30.338 53.899c-0.171 0-0.343-0.033-0.51-0.106-0.665-0.28-0.973-1.046-0.692-1.709 1.829-4.298 5.67-7.317 10.274-8.073 0.71-0.116 1.382 0.364 1.5 1.076 0.116 0.712-0.367 1.383-1.077 1.499-3.717 0.61-6.819 3.047-8.295 6.519C31.327 53.601 30.846 53.899 30.338 53.899z" fill="#ffffff" data-fill-palette-color="accent"></path><path d="M55.623 6.231c-0.616 0-1.09-0.204-1.425-0.608-0.333-0.403-0.447-0.917-0.336-1.53C54.107 2.699 54.943 2 56.368 2c0.584 0 1.042 0.202 1.377 0.609 0.333 0.404 0.446 0.898 0.345 1.483C57.839 5.518 57.016 6.231 55.623 6.231L55.623 6.231z" fill="#ffffff" data-fill-palette-color="accent"></path><path d="M48.099 13.466c-1.054 0-1.867-0.349-2.437-1.041-0.571-0.692-0.763-1.567-0.577-2.619 0.421-2.383 1.852-3.575 4.289-3.575 0.996 0 1.781 0.347 2.352 1.039 0.571 0.693 0.771 1.54 0.594 2.536C51.889 12.244 50.479 13.466 48.099 13.466L48.099 13.466z" fill="#ffffff" data-fill-palette-color="accent"></path><path d="M56.902 67.725c-0.371 0.313-0.603 0.755-0.603 1.253 0 0.975 0.928 1.764 2.064 1.764h1.102c-3.097 5.116-8.711 8.537-15.126 8.537-9.755 0-17.667-7.91-17.667-17.678 0-9.756 9.617-1.949 16.797-6.183 7.32-4.327 15.962-3.828 18.062 2.829h-3.167c-0.567 0-1.09 0.197-1.462 0.512-0.371 0.325-0.603 0.766-0.603 1.264 0 0.975 0.928 1.764 2.064 1.764h3.643c-0.012 1.891-0.325 3.711-0.904 5.417h-2.738C57.797 67.203 57.274 67.4 56.902 67.725z" fill="#ffffff" data-fill-palette-color="accent"></path></g></g></svg></g></svg></g></svg></g><defs></defs></svg><rect width="395.52" height="63.48657994988633" fill="none" stroke="none" visibility="hidden"></rect></g></svg></g></svg>